<svg xmlns="http://www.w3.org/2000/svg" aria-hidden="true" overflow="hidden" style="position:absolute;width:0;height:0">
    <defs>
        <symbol id="icon-arrow-right" width="7" height="12" viewBox="0 0 7 12" fill="none"
            xmlns="http://www.w3.org/2000/svg">
            <path d="M0.75 0.750081L5.70833 5.70841L0.75 10.6667" stroke="white" stroke-width="1.5"
                stroke-linecap="round" stroke-linejoin="round" />
        </symbol>

        <symbol id="icon-mouse" width="40" height="40" viewBox="0 0 40 40" fill="none"
            xmlns="http://www.w3.org/2000/svg">
            <g clip-path="url(#clip0_1_20)">
                <path
                    d="M19.9689 0C13.4811 0 8.20313 5.27802 8.20313 11.7657V28.2343C8.20313 34.722 13.4811 40 19.9689 40C26.4566 40 31.7346 34.722 31.7346 28.2343V11.7657C31.7346 5.27802 26.4566 0 19.9689 0ZM29.3347 28.2343C29.3347 33.3984 25.1331 37.6001 19.9689 37.6001C14.8047 37.6001 10.603 33.3984 10.603 28.2343V11.7657C10.603 6.60156 14.8047 2.3999 19.9689 2.3999C25.1331 2.3999 29.3347 6.60156 29.3347 11.7657V28.2343Z"
                    fill="#D4C17F" />
                <path
                    d="M19.9692 7.95715C19.3063 7.95715 18.7692 8.49426 18.7692 9.1571V14.6802C18.7692 15.3427 19.3063 15.8801 19.9692 15.8801C20.6317 15.8801 21.1691 15.3427 21.1691 14.6802V9.1571C21.1691 8.49426 20.632 7.95715 19.9692 7.95715Z"
                    fill="#D4C17F" />
            </g>

        </symbol>

        <symbol id="icon-map-marker" width="21" height="21" viewBox="0 0 21 21" xmlns="http://www.w3.org/2000/svg">
            <path
                d="M10.5684 4.60214C9.0884 4.60214 7.88379 5.80676 7.88379 7.28673C7.88379 8.76671 9.0884 9.97132 10.5684 9.97132C12.0484 9.97132 13.253 8.76671 13.253 7.28673C13.253 5.80676 12.0484 4.60214 10.5684 4.60214ZM10.5684 9.20429C9.51103 9.20429 8.65081 8.34407 8.65081 7.28673C8.65081 6.22939 9.51103 5.36917 10.5684 5.36917C11.6257 5.36917 12.4859 6.22939 12.4859 7.28673C12.4859 8.34407 11.6257 9.20429 10.5684 9.20429Z" />
            <path
                d="M15.7012 2.15419C14.3121 0.765108 12.4651 0 10.5007 0C8.53601 0 6.68939 0.765108 5.30031 2.15419C2.72963 4.72449 2.41016 9.56059 4.60846 12.4906L10.5007 21L16.3842 12.5025C18.5913 9.56059 18.2719 4.72449 15.7012 2.15419ZM15.7621 12.0542L10.5007 19.6523L5.2309 12.0423C3.23701 9.38379 3.52273 5.01635 5.84298 2.69648C7.0871 1.45236 8.74119 0.767025 10.5007 0.767025C12.2603 0.767025 13.9144 1.45236 15.1589 2.69648C17.4791 5.01635 17.7648 9.38379 15.7621 12.0542Z" />
        </symbol>

        <symbol id="icon-phone-call" width="21" height="21" viewBox="0 0 21 21" xmlns="http://www.w3.org/2000/svg">
            <g clip-path="url(#clip0_1_41)">
                <path
                    d="M20.9864 17.2839C20.9196 16.7792 20.6283 16.3441 20.1872 16.0902L15.0064 13.1073C14.3719 12.742 13.5669 12.8483 13.049 13.3662L12.0286 14.3866C11.757 14.6582 11.3274 14.6823 11.0295 14.4425C10.225 13.7952 9.43292 13.0828 8.67525 12.3251C7.91759 11.5674 7.20519 10.7753 6.55783 9.97083C6.31804 9.67285 6.34203 9.24328 6.61366 8.97169L7.63407 7.95124C8.15194 7.43342 8.25844 6.62854 7.89301 5.99388L4.91011 0.813105C4.65612 0.371977 4.22107 0.080704 3.71644 0.0139407C3.21177 -0.0529586 2.7159 0.115356 2.35596 0.475297L0.818363 2.01294C-0.254794 3.08614 -0.272029 5.04922 0.769833 7.54064C1.77165 9.93623 3.6412 12.5734 6.03402 14.9663C8.42693 17.3591 11.0641 19.2287 13.4597 20.2305C14.6861 20.7434 15.7843 20.9996 16.7116 20.9996C17.668 20.9996 18.4425 20.7268 18.9874 20.1819L20.525 18.6443C20.8849 18.2844 21.0531 17.7885 20.9864 17.2839ZM14.667 13.6969L19.8478 16.6798C20.104 16.8273 20.2732 17.08 20.3119 17.3731C20.3445 17.619 20.2806 17.8612 20.1357 18.0564L13.2505 14.1269L13.5301 13.8473C13.8309 13.5465 14.2985 13.4847 14.667 13.6969ZM3.62718 0.688422C3.92032 0.727201 4.17299 0.896377 4.32049 1.15259L7.30339 6.33337C7.51565 6.70197 7.45378 7.1695 7.15303 7.4702L6.89618 7.72705L2.94508 0.864628C3.10659 0.745026 3.29976 0.680077 3.50114 0.680077C3.54291 0.680077 3.58505 0.682844 3.62718 0.688422ZM18.5063 19.7009C17.6537 20.5534 15.91 20.5177 13.7222 19.6028C11.4063 18.6344 8.84688 16.8169 6.51515 14.4852C4.18342 12.1535 2.36594 9.59397 1.39751 7.27817C0.482551 5.09035 0.446856 3.34662 1.29945 2.49398L2.44091 1.35247L6.39795 8.22528L6.13258 8.49066C5.61484 9.00843 5.56976 9.8281 6.02776 10.3974C6.69036 11.2209 7.41927 12.0313 8.19412 12.8061C8.96907 13.581 9.77948 14.3099 10.6029 14.9725C11.1721 15.4305 11.9918 15.3855 12.5097 14.8677L12.7518 14.6256L19.6465 18.5606L18.5063 19.7009Z" />
            </g>
            <defs>
                <clipPath id="clip0_1_41">
                    <rect width="21" height="21" fill="white" />
                </clipPath>
            </defs>
        </symbol>




    </defs>
</svg>