<svg xmlns="http://www.w3.org/2000/svg" aria-hidden="true" overflow="hidden" style="position:absolute;width:0;height:0">
    <defs>
        <symbol id="icon-mouse" width="40" height="40" viewBox="0 0 40 40" fill="none"
            xmlns="http://www.w3.org/2000/svg">
            <g clip-path="url(#clip0_1_20)">
                <path
                    d="M19.9689 0C13.4811 0 8.20313 5.27802 8.20313 11.7657V28.2343C8.20313 34.722 13.4811 40 19.9689 40C26.4566 40 31.7346 34.722 31.7346 28.2343V11.7657C31.7346 5.27802 26.4566 0 19.9689 0ZM29.3347 28.2343C29.3347 33.3984 25.1331 37.6001 19.9689 37.6001C14.8047 37.6001 10.603 33.3984 10.603 28.2343V11.7657C10.603 6.60156 14.8047 2.3999 19.9689 2.3999C25.1331 2.3999 29.3347 6.60156 29.3347 11.7657V28.2343Z"
                    fill="#D4C17F" />
                <path
                    d="M19.9692 7.95715C19.3063 7.95715 18.7692 8.49426 18.7692 9.1571V14.6802C18.7692 15.3427 19.3063 15.8801 19.9692 15.8801C20.6317 15.8801 21.1691 15.3427 21.1691 14.6802V9.1571C21.1691 8.49426 20.632 7.95715 19.9692 7.95715Z"
                    fill="#D4C17F" />
            </g>

        </symbol>

        <symbol id="icon-map-marker" width="21" height="21" viewBox="0 0 21 21" xmlns="http://www.w3.org/2000/svg">
            <path
                d="M10.5684 4.60214C9.0884 4.60214 7.88379 5.80676 7.88379 7.28673C7.88379 8.76671 9.0884 9.97132 10.5684 9.97132C12.0484 9.97132 13.253 8.76671 13.253 7.28673C13.253 5.80676 12.0484 4.60214 10.5684 4.60214ZM10.5684 9.20429C9.51103 9.20429 8.65081 8.34407 8.65081 7.28673C8.65081 6.22939 9.51103 5.36917 10.5684 5.36917C11.6257 5.36917 12.4859 6.22939 12.4859 7.28673C12.4859 8.34407 11.6257 9.20429 10.5684 9.20429Z" />
            <path
                d="M15.7012 2.15419C14.3121 0.765108 12.4651 0 10.5007 0C8.53601 0 6.68939 0.765108 5.30031 2.15419C2.72963 4.72449 2.41016 9.56059 4.60846 12.4906L10.5007 21L16.3842 12.5025C18.5913 9.56059 18.2719 4.72449 15.7012 2.15419ZM15.7621 12.0542L10.5007 19.6523L5.2309 12.0423C3.23701 9.38379 3.52273 5.01635 5.84298 2.69648C7.0871 1.45236 8.74119 0.767025 10.5007 0.767025C12.2603 0.767025 13.9144 1.45236 15.1589 2.69648C17.4791 5.01635 17.7648 9.38379 15.7621 12.0542Z" />
        </symbol>

        <symbol id="icon-phone-call" width="21" height="21" viewBox="0 0 21 21" xmlns="http://www.w3.org/2000/svg">
            <g clip-path="url(#clip0_1_41)">
                <path
                    d="M20.9864 17.2839C20.9196 16.7792 20.6283 16.3441 20.1872 16.0902L15.0064 13.1073C14.3719 12.742 13.5669 12.8483 13.049 13.3662L12.0286 14.3866C11.757 14.6582 11.3274 14.6823 11.0295 14.4425C10.225 13.7952 9.43292 13.0828 8.67525 12.3251C7.91759 11.5674 7.20519 10.7753 6.55783 9.97083C6.31804 9.67285 6.34203 9.24328 6.61366 8.97169L7.63407 7.95124C8.15194 7.43342 8.25844 6.62854 7.89301 5.99388L4.91011 0.813105C4.65612 0.371977 4.22107 0.080704 3.71644 0.0139407C3.21177 -0.0529586 2.7159 0.115356 2.35596 0.475297L0.818363 2.01294C-0.254794 3.08614 -0.272029 5.04922 0.769833 7.54064C1.77165 9.93623 3.6412 12.5734 6.03402 14.9663C8.42693 17.3591 11.0641 19.2287 13.4597 20.2305C14.6861 20.7434 15.7843 20.9996 16.7116 20.9996C17.668 20.9996 18.4425 20.7268 18.9874 20.1819L20.525 18.6443C20.8849 18.2844 21.0531 17.7885 20.9864 17.2839ZM14.667 13.6969L19.8478 16.6798C20.104 16.8273 20.2732 17.08 20.3119 17.3731C20.3445 17.619 20.2806 17.8612 20.1357 18.0564L13.2505 14.1269L13.5301 13.8473C13.8309 13.5465 14.2985 13.4847 14.667 13.6969ZM3.62718 0.688422C3.92032 0.727201 4.17299 0.896377 4.32049 1.15259L7.30339 6.33337C7.51565 6.70197 7.45378 7.1695 7.15303 7.4702L6.89618 7.72705L2.94508 0.864628C3.10659 0.745026 3.29976 0.680077 3.50114 0.680077C3.54291 0.680077 3.58505 0.682844 3.62718 0.688422ZM18.5063 19.7009C17.6537 20.5534 15.91 20.5177 13.7222 19.6028C11.4063 18.6344 8.84688 16.8169 6.51515 14.4852C4.18342 12.1535 2.36594 9.59397 1.39751 7.27817C0.482551 5.09035 0.446856 3.34662 1.29945 2.49398L2.44091 1.35247L6.39795 8.22528L6.13258 8.49066C5.61484 9.00843 5.56976 9.8281 6.02776 10.3974C6.69036 11.2209 7.41927 12.0313 8.19412 12.8061C8.96907 13.581 9.77948 14.3099 10.6029 14.9725C11.1721 15.4305 11.9918 15.3855 12.5097 14.8677L12.7518 14.6256L19.6465 18.5606L18.5063 19.7009Z" />
            </g>
            <defs>
                <clipPath id="clip0_1_41">
                    <rect width="21" height="21" fill="white" />
                </clipPath>
            </defs>
        </symbol>

        <symbol id="icon-play-button" width="100" height="100" viewBox="0 0 100 100" fill="none"
            xmlns="http://www.w3.org/2000/svg">
            <g clip-path="url(#clip0_3_56)">
                <path
                    d="M50 0C22.3861 0 0 22.3857 0 50C0 77.6143 22.3861 100 50 100C77.6139 100 100 77.6143 100 50C100 22.3857 77.6139 0 50 0ZM67.2812 52.6504L42.2812 68.2754C41.7754 68.5912 41.2002 68.75 40.625 68.75C40.1039 68.75 39.582 68.6203 39.1098 68.3578C38.1164 67.807 37.5 66.7617 37.5 65.625V34.375C37.5 33.2383 38.1164 32.193 39.1098 31.6422C40.1031 31.0883 41.3178 31.1219 42.2812 31.7246L67.2812 47.3496C68.1945 47.9219 68.75 48.9229 68.75 50C68.75 51.0771 68.1945 52.0783 67.2812 52.6504Z"
                    fill="#D4C17F" />
            </g>
            <defs>
                <clipPath id="clip0_3_56">
                    <rect width="100" height="100" fill="white" />
                </clipPath>
            </defs>
        </symbol>

        <symbol id="icon-youtube" width="29" height="20" viewBox="0 0 29 20" xmlns="http://www.w3.org/2000/svg">
            <path
                d="M22.3936 0H5.86998C2.62808 0 0 2.62807 0 5.86998V14.13C0 17.3719 2.62808 20 5.86998 20H22.3936C25.6355 20 28.2635 17.3719 28.2635 14.13V5.86998C28.2635 2.62807 25.6355 0 22.3936 0ZM18.4237 10.4019L10.6951 14.088C10.4892 14.1862 10.2513 14.036 10.2513 13.8079V6.20534C10.2513 5.97396 10.4954 5.82399 10.7018 5.92859L18.4304 9.84507C18.6602 9.9615 18.6562 10.291 18.4237 10.4019Z" />
        </symbol>

        <symbol id="icon-twitter" width="18" height="16" viewBox="0 0 18 16" xmlns="http://www.w3.org/2000/svg">
            <g clip-path="url(#clip0_222_641)">
                <path
                    d="M16.0916 3.99895C16.1024 4.16814 16.1024 4.33733 16.1024 4.50808C16.1024 9.71091 12.4194 15.7114 5.68479 15.7114V15.7082C3.69537 15.7114 1.74728 15.0985 0.0725098 13.943C0.361788 13.9805 0.652516 13.9992 0.943969 14C2.59264 14.0015 4.19418 13.4066 5.49122 12.3112C3.92447 12.2792 2.55059 11.1806 2.07063 9.57681C2.61946 9.69064 3.18497 9.66725 3.72365 9.50897C2.01553 9.13785 0.786642 7.5239 0.786642 5.64954C0.786642 5.63239 0.786642 5.61601 0.786642 5.59964C1.2956 5.9045 1.86545 6.07369 2.44836 6.0924C0.839568 4.93613 0.343663 2.6345 1.31517 0.834993C3.17409 3.2949 5.9168 4.79033 8.86105 4.9486C8.56597 3.58104 8.96908 2.14798 9.92029 1.18663C11.395 -0.304125 13.7143 -0.227716 15.1005 1.35738C15.9204 1.18351 16.7064 0.859943 17.4256 0.401488C17.1522 1.31294 16.5802 2.08716 15.816 2.57915C16.5418 2.48714 17.2508 2.27819 17.9186 1.9593C17.427 2.75146 16.8079 3.44148 16.0916 3.99895Z" />
            </g>
            <defs>
                <clipPath id="clip0_222_641">
                    <rect width="17.9802" height="15.9056" />
                </clipPath>
            </defs>
        </symbol>

        <symbol id="icon-facebook" width="20" height="20" viewBox="0 0 20 20" xmlns="http://www.w3.org/2000/svg">
            <path
                d="M14.9995 0.00416134L12.4059 0C9.49217 0 7.60917 1.9319 7.60917 4.92203V7.19141H5.00147C4.77613 7.19141 4.59366 7.37409 4.59366 7.59943V10.8875C4.59366 11.1128 4.77634 11.2953 5.00147 11.2953H7.60917V19.5922C7.60917 19.8175 7.79164 20 8.01698 20H11.4193C11.6446 20 11.8271 19.8173 11.8271 19.5922V11.2953H14.8761C15.1014 11.2953 15.2839 11.1128 15.2839 10.8875L15.2852 7.59943C15.2852 7.49123 15.2421 7.38762 15.1657 7.31105C15.0894 7.23448 14.9853 7.19141 14.8771 7.19141H11.8271V5.26763C11.8271 4.34298 12.0474 3.87358 13.2519 3.87358L14.9991 3.87295C15.2242 3.87295 15.4067 3.69027 15.4067 3.46514V0.411972C15.4067 0.187052 15.2244 0.00457747 14.9995 0.00416134Z" />
        </symbol>

        <symbol id="icon-instagram" width="20" height="20" viewBox="0 0 20 20" xmlns="http://www.w3.org/2000/svg">
            <g clip-path="url(#clip0_3_108)">
                <path
                    d="M13.75 0H6.25C2.79875 0 0 2.79875 0 6.25V13.75C0 17.2013 2.79875 20 6.25 20H13.75C17.2013 20 20 17.2013 20 13.75V6.25C20 2.79875 17.2013 0 13.75 0ZM18.125 13.75C18.125 16.1625 16.1625 18.125 13.75 18.125H6.25C3.8375 18.125 1.875 16.1625 1.875 13.75V6.25C1.875 3.8375 3.8375 1.875 6.25 1.875H13.75C16.1625 1.875 18.125 3.8375 18.125 6.25V13.75Z" />
                <path
                    d="M10 5C7.23875 5 5 7.23875 5 10C5 12.7613 7.23875 15 10 15C12.7613 15 15 12.7613 15 10C15 7.23875 12.7613 5 10 5ZM10 13.125C8.2775 13.125 6.875 11.7225 6.875 10C6.875 8.27625 8.2775 6.875 10 6.875C11.7225 6.875 13.125 8.27625 13.125 10C13.125 11.7225 11.7225 13.125 10 13.125Z" />
                <path
                    d="M15.375 5.29148C15.743 5.29148 16.0412 4.99319 16.0412 4.62523C16.0412 4.25727 15.743 3.95898 15.375 3.95898C15.007 3.95898 14.7087 4.25727 14.7087 4.62523C14.7087 4.99319 15.007 5.29148 15.375 5.29148Z" />
            </g>
            <defs>
                <clipPath id="clip0_3_108">
                    <rect width="20" height="20" />
                </clipPath>
            </defs>
        </symbol>

    </defs>
</svg>