<svg width="165" height="69" viewBox="0 0 165 69" fill="none" xmlns="http://www.w3.org/2000/svg">
<path d="M1.71875 45V14.9219H5.45703V28.0273H9.32422V31.6797H5.45703V45H1.71875ZM11.4727 31.6797V28.0273H15.2969V14.9219H19.0781V45H15.2969V31.6797H11.4727ZM22.4297 38.6406V28.0273C22.4297 26.681 23.0312 25.3633 24.2344 24.0742C25.724 22.5273 27.5859 21.7539 29.8203 21.7539V25.2344C28.1302 25.2344 26.9557 25.9362 26.2969 27.3398C26.0964 27.7695 25.9961 28.1992 25.9961 28.6289V38.082C25.9961 39.1419 26.4831 40.0443 27.457 40.7891C28.1445 41.3047 28.9323 41.5625 29.8203 41.5625V45.043C27.099 45.043 24.9935 43.9401 23.5039 41.7344C22.7878 40.6458 22.4297 39.6146 22.4297 38.6406ZM31.668 45.043V41.5625C33.1862 41.5625 34.2747 40.875 34.9336 39.5C35.1628 39.0417 35.2773 38.5977 35.2773 38.168V28.6289C35.2773 27.4544 34.776 26.5234 33.7734 25.8359C33.1432 25.4349 32.4271 25.2344 31.625 25.2344V21.7539C34.2604 21.7539 36.2943 22.8281 37.7266 24.9766C38.4427 26.0365 38.8008 27.0534 38.8008 28.0273V38.6406C38.8008 40.0443 38.1992 41.4049 36.9961 42.7227C35.5924 44.2409 33.8164 45.0143 31.668 45.043ZM42.0664 38.8125V21.7969H45.7188V38.3828C45.7188 39.4141 46.2344 40.2734 47.2656 40.9609C47.9531 41.3906 48.7122 41.6055 49.543 41.6055V45.2148C46.793 45.2148 44.6732 44.1406 43.1836 41.9922C42.4388 40.9036 42.0664 39.8438 42.0664 38.8125ZM51.4336 45.2148V41.6055C52.9805 41.6055 54.112 40.9896 54.8281 39.7578C55.0859 39.2995 55.2148 38.8411 55.2148 38.3828V21.7969H58.8672V38.8125C58.8672 40.1589 58.2513 41.4909 57.0195 42.8086C55.5299 44.3841 53.668 45.1862 51.4336 45.2148ZM61.3594 38.8984L64.7539 38.2539C64.7539 39.543 65.4271 40.5599 66.7734 41.3047C67.4323 41.6198 68.0625 41.7917 68.6641 41.8203V45.2148C65.8854 45.2148 63.8086 44.2122 62.4336 42.207C61.7174 41.1471 61.3594 40.0443 61.3594 38.8984ZM61.5742 28.3281C61.5742 25.7214 62.763 23.7878 65.1406 22.5273C66.2865 21.9258 67.4323 21.625 68.5781 21.625V24.9766C67.2604 24.9766 66.2435 25.5208 65.5273 26.6094C65.1549 27.1536 64.9688 27.7266 64.9688 28.3281C64.9688 29.2448 65.6849 29.9896 67.1172 30.5625C68.2057 31.0208 70.3112 31.6224 73.4336 32.3672C75.3815 32.7682 76.7708 33.7279 77.6016 35.2461C78.0312 36.0482 78.2461 36.9505 78.2461 37.9531C78.2461 40.7031 77.1432 42.737 74.9375 44.0547C73.6484 44.8281 72.1732 45.2148 70.5117 45.2148V41.8203C71.8294 41.8203 72.9323 41.362 73.8203 40.4453C74.4505 39.7865 74.7656 39.013 74.7656 38.125C74.7656 36.9792 73.6341 36.0625 71.3711 35.375C70.7982 35.2031 69.8815 34.9596 68.6211 34.6445C67.2747 34.3294 66.3008 34.0716 65.6992 33.8711C63.5221 33.0117 62.2044 31.7083 61.7461 29.9609C61.6315 29.4453 61.5742 28.901 61.5742 28.3281ZM70.4688 25.0195V21.625C72.9323 21.625 74.9232 22.5417 76.4414 24.375C77.3867 25.5495 77.8594 26.7812 77.8594 28.0703L74.4648 28.6289C74.4648 27.0534 73.6055 25.9505 71.8867 25.3203C71.3711 25.1198 70.8984 25.0195 70.4688 25.0195ZM80.7812 38.6406V27.9844C80.8099 26.6667 81.4401 25.3633 82.6719 24.0742C84.1615 22.556 85.9661 21.7826 88.0859 21.7539V25.1484C86.7109 25.1484 85.6367 25.75 84.8633 26.9531C84.5482 27.4688 84.3906 27.9414 84.3906 28.3711V31.293H94.0156V28.3711C94.0156 27.082 93.3568 26.1367 92.0391 25.5352C91.4375 25.2487 90.8216 25.1055 90.1914 25.1055V21.7539C92.168 21.7539 93.9297 22.4557 95.4766 23.8594C96.7656 25.0911 97.4245 26.4518 97.4531 27.9414V34.7734H84.3906V38.6406C84.3906 39.4427 84.849 40.1875 85.7656 40.875C86.5104 41.3906 87.2982 41.6484 88.1289 41.6484V45C85.5221 45 83.474 43.9401 81.9844 41.8203C81.1823 40.7031 80.7812 39.6432 80.7812 38.6406ZM90.1914 45V41.6055C91.9102 41.6055 93.1992 40.8607 94.0586 39.3711C94.2305 39.056 94.3594 38.7552 94.4453 38.4688L97.4961 39.5859C96.9805 41.5625 95.806 43.0521 93.9727 44.0547C92.7982 44.6849 91.5378 45 90.1914 45ZM99.6016 14.9219H103.383L111.031 41.0469L109.656 45H108.324L99.6016 14.9219ZM110.086 30.8633L115.414 14.9219H119.195C118.938 15.7526 117.863 19.0755 115.973 24.8906C113.767 31.651 112.507 35.5326 112.191 36.5352H111.762L110.086 30.8633ZM121.258 36.6211V22.4844C121.258 20.9661 121.902 19.4193 123.191 17.8438C124.91 15.7812 127.087 14.7357 129.723 14.707V18.4453C127.975 18.4453 126.615 19.3333 125.641 21.1094C125.24 21.8828 125.039 22.5703 125.039 23.1719V36.6211C125.039 38.4258 125.927 39.8294 127.703 40.832C128.448 41.2617 129.107 41.4766 129.68 41.4766V45.2148C128.047 45.2148 126.414 44.6276 124.781 43.4531C122.461 41.7344 121.286 39.457 121.258 36.6211ZM132.043 45.2148V41.4766C133.046 41.4766 134.062 41.0326 135.094 40.1445C136.182 39.1706 136.741 37.9961 136.77 36.6211V23.1719C136.77 22.0547 136.311 20.9805 135.395 19.9492C134.449 18.9753 133.332 18.474 132.043 18.4453V14.707C134.936 14.707 137.257 15.9531 139.004 18.4453C140.007 19.8776 140.508 21.224 140.508 22.4844V36.6211C140.508 39.8008 139.09 42.2357 136.254 43.9258C134.764 44.7852 133.361 45.2148 132.043 45.2148ZM143.988 45H147.727V14.9219H143.988V45ZM149.875 31.5508H154.516C158.268 31.5221 160.617 30.0898 161.562 27.2539C161.935 26.1081 162.121 24.7474 162.121 23.1719C162.121 17.9297 159.758 15.1797 155.031 14.9219C154.859 14.9219 154.688 14.9219 154.516 14.9219H149.875V18.5312H153.914C156.807 18.5885 158.268 20.1354 158.297 23.1719C158.24 26.2943 156.793 27.8698 153.957 27.8984H149.875V31.5508Z" fill="white"/>
<path d="M0.312 66L3.624 61.608L0.516 57.48H1.5L4.332 61.272H5.496V57.48H6.324V61.272H7.476L10.32 57.48H11.304L8.184 61.608L11.496 66H10.524L7.5 62.04H6.324V66H5.496V62.04H4.308L1.284 66H0.312ZM14.3802 66V57.48H15.2082V64.848L20.4882 57.48H21.2682V66H20.4402V58.764L15.2202 66H14.3802ZM30.9374 58.224H27.9014V66H27.0614V58.224H24.0254V57.48H30.9374V58.224ZM39.4136 66V58.224H35.9336L35.8856 60.024C35.8456 61.2 35.7616 62.176 35.6336 62.952C35.5056 63.728 35.3256 64.34 35.0936 64.788C34.8616 65.228 34.5776 65.544 34.2416 65.736C33.9056 65.92 33.5056 66.012 33.0416 66.012V65.268C33.3536 65.268 33.6296 65.188 33.8696 65.028C34.1096 64.868 34.3136 64.588 34.4816 64.188C34.6496 63.788 34.7816 63.236 34.8776 62.532C34.9816 61.82 35.0496 60.92 35.0816 59.832L35.1536 57.48H40.2416V66H39.4136ZM47.2444 66.06C46.6444 66.06 46.1004 65.94 45.6124 65.7C45.1244 65.46 44.7044 65.136 44.3524 64.728C44.0004 64.312 43.7284 63.848 43.5364 63.336C43.3444 62.816 43.2484 62.284 43.2484 61.74C43.2484 61.172 43.3484 60.632 43.5484 60.12C43.7484 59.6 44.0284 59.14 44.3884 58.74C44.7564 58.332 45.1844 58.012 45.6724 57.78C46.1604 57.54 46.6884 57.42 47.2564 57.42C47.8564 57.42 48.4004 57.544 48.8884 57.792C49.3764 58.04 49.7924 58.372 50.1364 58.788C50.4884 59.204 50.7604 59.668 50.9524 60.18C51.1444 60.692 51.2404 61.216 51.2404 61.752C51.2404 62.32 51.1404 62.864 50.9404 63.384C50.7404 63.896 50.4604 64.356 50.1004 64.764C49.7404 65.164 49.3164 65.48 48.8284 65.712C48.3404 65.944 47.8124 66.06 47.2444 66.06ZM44.0884 61.74C44.0884 62.204 44.1644 62.652 44.3164 63.084C44.4684 63.508 44.6844 63.888 44.9644 64.224C45.2444 64.552 45.5764 64.816 45.9604 65.016C46.3524 65.208 46.7804 65.304 47.2444 65.304C47.7324 65.304 48.1684 65.204 48.5524 65.004C48.9444 64.796 49.2764 64.524 49.5484 64.188C49.8284 63.844 50.0404 63.46 50.1844 63.036C50.3284 62.612 50.4004 62.18 50.4004 61.74C50.4004 61.276 50.3244 60.832 50.1724 60.408C50.0204 59.984 49.8004 59.604 49.5124 59.268C49.2324 58.932 48.9004 58.668 48.5164 58.476C48.1324 58.284 47.7084 58.188 47.2444 58.188C46.7644 58.188 46.3284 58.288 45.9364 58.488C45.5524 58.688 45.2204 58.96 44.9404 59.304C44.6684 59.64 44.4564 60.02 44.3044 60.444C44.1604 60.868 44.0884 61.3 44.0884 61.74ZM60.6721 63.804C60.6721 64.228 60.5641 64.608 60.3481 64.944C60.1321 65.272 59.8401 65.532 59.4721 65.724C59.1121 65.908 58.7161 66 58.2841 66H54.2641V57.48H58.3681C58.7681 57.48 59.1121 57.588 59.4001 57.804C59.6961 58.012 59.9201 58.284 60.0721 58.62C60.2321 58.948 60.3121 59.292 60.3121 59.652C60.3121 60.076 60.2041 60.468 59.9881 60.828C59.7721 61.188 59.4721 61.456 59.0881 61.632C59.5761 61.776 59.9601 62.044 60.2401 62.436C60.5281 62.828 60.6721 63.284 60.6721 63.804ZM59.8321 63.66C59.8321 63.372 59.7681 63.108 59.6401 62.868C59.5121 62.62 59.3361 62.42 59.1121 62.268C58.8961 62.116 58.6481 62.04 58.3681 62.04H55.1041V65.268H58.2841C58.5721 65.268 58.8321 65.192 59.0641 65.04C59.2961 64.888 59.4801 64.692 59.6161 64.452C59.7601 64.204 59.8321 63.94 59.8321 63.66ZM55.1041 58.212V61.356H58.0321C58.3121 61.356 58.5601 61.284 58.7761 61.14C58.9921 60.988 59.1641 60.792 59.2921 60.552C59.4201 60.312 59.4841 60.056 59.4841 59.784C59.4841 59.496 59.4241 59.236 59.3041 59.004C59.1841 58.764 59.0201 58.572 58.8121 58.428C58.6041 58.284 58.3681 58.212 58.1041 58.212H55.1041ZM63.7443 66V57.48H64.5723V64.848L69.8523 57.48H70.6323V66H69.8043V58.764L64.5843 66H63.7443ZM74.3015 66V57.48H75.1295V64.848L80.4095 57.48H81.1895V66H80.3615V58.764L75.1415 66H74.3015ZM77.7575 56.76C77.3655 56.76 77.0335 56.704 76.7615 56.592C76.4975 56.472 76.2975 56.312 76.1615 56.112C76.0255 55.904 75.9535 55.68 75.9455 55.44H76.6055C76.6135 55.648 76.6975 55.836 76.8575 56.004C77.0255 56.172 77.3255 56.256 77.7575 56.256C78.1735 56.256 78.4655 56.18 78.6335 56.028C78.8015 55.868 78.8895 55.672 78.8975 55.44H79.5575C79.5495 55.68 79.4775 55.904 79.3415 56.112C79.2055 56.312 79.0055 56.472 78.7415 56.592C78.4855 56.704 78.1575 56.76 77.7575 56.76ZM89.3092 66V57.48H90.1492V61.272H91.4332L94.3612 57.48H95.3332L92.1292 61.608L95.5372 66H94.5052L91.4572 62.04H90.1492V66H89.3092ZM101.318 66.06C100.718 66.06 100.174 65.94 99.686 65.7C99.198 65.46 98.778 65.136 98.426 64.728C98.074 64.312 97.802 63.848 97.61 63.336C97.418 62.816 97.322 62.284 97.322 61.74C97.322 61.172 97.422 60.632 97.622 60.12C97.822 59.6 98.102 59.14 98.462 58.74C98.83 58.332 99.258 58.012 99.746 57.78C100.234 57.54 100.762 57.42 101.33 57.42C101.93 57.42 102.474 57.544 102.962 57.792C103.45 58.04 103.866 58.372 104.21 58.788C104.562 59.204 104.834 59.668 105.026 60.18C105.218 60.692 105.314 61.216 105.314 61.752C105.314 62.32 105.214 62.864 105.014 63.384C104.814 63.896 104.534 64.356 104.174 64.764C103.814 65.164 103.39 65.48 102.902 65.712C102.414 65.944 101.886 66.06 101.318 66.06ZM98.162 61.74C98.162 62.204 98.238 62.652 98.39 63.084C98.542 63.508 98.758 63.888 99.038 64.224C99.318 64.552 99.65 64.816 100.034 65.016C100.426 65.208 100.854 65.304 101.318 65.304C101.806 65.304 102.242 65.204 102.626 65.004C103.018 64.796 103.35 64.524 103.622 64.188C103.902 63.844 104.114 63.46 104.258 63.036C104.402 62.612 104.474 62.18 104.474 61.74C104.474 61.276 104.398 60.832 104.246 60.408C104.094 59.984 103.874 59.604 103.586 59.268C103.306 58.932 102.974 58.668 102.59 58.476C102.206 58.284 101.782 58.188 101.318 58.188C100.838 58.188 100.402 58.288 100.01 58.488C99.626 58.688 99.294 58.96 99.014 59.304C98.742 59.64 98.53 60.02 98.378 60.444C98.234 60.868 98.162 61.3 98.162 61.74ZM115.886 66V59.064L112.802 64.452H112.274L109.178 59.064V66H108.338V57.48H109.202L112.526 63.312L115.874 57.48H116.726V66H115.886ZM120.301 66V57.48H126.733V66H125.893V58.224H121.141V66H120.301ZM136.068 66V58.224H132.588L132.54 60.024C132.5 61.2 132.416 62.176 132.288 62.952C132.16 63.728 131.98 64.34 131.748 64.788C131.516 65.228 131.232 65.544 130.896 65.736C130.56 65.92 130.16 66.012 129.696 66.012V65.268C130.008 65.268 130.284 65.188 130.524 65.028C130.764 64.868 130.968 64.588 131.136 64.188C131.304 63.788 131.436 63.236 131.532 62.532C131.636 61.82 131.704 60.92 131.736 59.832L131.808 57.48H136.896V66H136.068ZM146.19 65.256V66H140.466V57.48H146.082V58.224H141.306V61.296H145.47V62.004H141.306V65.256H146.19ZM149.219 66V57.48H150.059V61.272H151.343L154.271 57.48H155.243L152.039 61.608L155.447 66H154.415L151.367 62.04H150.059V66H149.219ZM157.232 61.68C157.232 61.16 157.32 60.652 157.496 60.156C157.68 59.652 157.944 59.196 158.288 58.788C158.632 58.372 159.056 58.044 159.56 57.804C160.064 57.556 160.636 57.432 161.276 57.432C162.036 57.432 162.684 57.608 163.22 57.96C163.764 58.304 164.164 58.748 164.42 59.292L163.76 59.7C163.576 59.324 163.344 59.028 163.064 58.812C162.784 58.588 162.484 58.428 162.164 58.332C161.852 58.236 161.54 58.188 161.228 58.188C160.716 58.188 160.264 58.292 159.872 58.5C159.48 58.7 159.148 58.972 158.876 59.316C158.612 59.652 158.412 60.032 158.276 60.456C158.14 60.872 158.072 61.296 158.072 61.728C158.072 62.2 158.152 62.652 158.312 63.084C158.472 63.516 158.696 63.9 158.984 64.236C159.272 64.564 159.608 64.828 159.992 65.028C160.384 65.22 160.808 65.316 161.264 65.316C161.584 65.316 161.912 65.26 162.248 65.148C162.584 65.036 162.896 64.864 163.184 64.632C163.48 64.4 163.716 64.1 163.892 63.732L164.588 64.092C164.412 64.516 164.14 64.876 163.772 65.172C163.404 65.468 162.992 65.692 162.536 65.844C162.088 65.996 161.648 66.072 161.216 66.072C160.632 66.072 160.096 65.948 159.608 65.7C159.12 65.444 158.696 65.108 158.336 64.692C157.984 64.268 157.712 63.796 157.52 63.276C157.328 62.748 157.232 62.216 157.232 61.68Z" fill="white"/>
</svg>
